<svg xmlns="http://www.w3.org/2000/svg" width="620" height="148" viewBox="0 0 620 148" role="img" aria-label="Contribution overview"><title>Contribution overview</title><style>
text{font-family:ui-monospace,SFMono-Regular,Menlo,Consolas,"Liberation Mono",monospace}.t{fill:#24292f}.m{fill:#656d76}.a{fill:#15803d;stroke:#15803d}.u{stroke:#d0d7de}.g{stroke:#d0d7de}.f{fill:#d0d7de}.q{fill:#b6e3c6}.r{fill:#1a7f37}
@media (prefers-color-scheme: dark){.t{fill:#f0f6fc}.m{fill:#8b949e}.a{fill:#4ade80;stroke:#4ade80}.u{stroke:#30363d}.g{stroke:#30363d}.f{fill:#30363d}.q{fill:#164b32}.r{fill:#4ade80}}
</style><g opacity="0"><animate attributeName="opacity" values="0;1" dur=".5s" fill="freeze"/><text class="t" x="0" y="49" font-size="46" text-anchor="start" font-weight="400">225</text><text class="m" x="0" y="70" font-size="11" text-anchor="start" font-weight="400">225 contributions in the last year</text><text class="a" x="620" y="30" font-size="18" text-anchor="end" font-weight="400">13</text><text class="m" x="620" y="47" font-size="10" text-anchor="end" font-weight="400">public repos</text><text class="a" x="620" y="67" font-size="18" text-anchor="end" font-weight="400">2</text><text class="m" x="620" y="84" font-size="10" text-anchor="end" font-weight="400">followers</text></g><line class="g" x1="0" y1="93" x2="620" y2="93" stroke-width="1" stroke-dasharray="2 5"/><line class="g" x1="0" y1="115.0" x2="620" y2="115.0" stroke-width="1" stroke-dasharray="2 5"/><line class="g" x1="0" y1="137" x2="620" y2="137" stroke-width="1" stroke-dasharray="2 5"/><path d="M0.0 137.0 L11.9 137.0 L23.8 137.0 L35.8 137.0 L47.7 137.0 L59.6 137.0 L71.5 136.3 L83.5 137.0 L95.4 137.0 L107.3 137.0 L119.2 137.0 L131.2 131.4 L143.1 137.0 L155.0 137.0 L166.9 136.3 L178.8 137.0 L190.8 137.0 L202.7 137.0 L214.6 136.3 L226.5 137.0 L238.5 137.0 L250.4 137.0 L262.3 137.0 L274.2 137.0 L286.2 134.9 L298.1 137.0 L310.0 137.0 L321.9 137.0 L333.8 137.0 L345.8 136.3 L357.7 137.0 L369.6 137.0 L381.5 137.0 L393.5 137.0 L405.4 137.0 L417.3 137.0 L429.2 137.0 L441.2 137.0 L453.1 137.0 L465.0 135.6 L476.9 130.0 L488.8 132.1 L500.8 122.3 L512.7 104.9 L524.6 93.0 L536.5 120.9 L548.5 130.7 L560.4 135.6 L572.3 133.5 L584.2 137.0 L596.2 130.0 L608.1 128.6 L620.0 137.0" fill="none" class="a" stroke="currentColor" stroke-width="1.5" stroke-linecap="round" stroke-linejoin="round" pathLength="1" stroke-dasharray="1" stroke-dashoffset="1"><animate attributeName="stroke-dashoffset" from="1" to="0" dur="1.1s" fill="freeze"/></path></svg>